<svg xmlns="http://www.w3.org/2000/svg" viewBox="0 0 1280 720" width="1280" height="720" font-family="Segoe UI, Arial, sans-serif">
  <rect width="1280" height="720" fill="#0D1B2A"/>
  <rect width="1280" height="7" fill="#00C9B1"/>

  <!-- Title -->
  <text x="640" y="46" text-anchor="middle" font-size="33" font-weight="700" fill="#FFFFFF">AI-Powered DevOps Innovations — Execution Roadmap</text>
  <text x="640" y="74" text-anchor="middle" font-size="13" fill="#00C9B1">April → July 2026  |  4 Engineers  |  Samsung R&amp;D Institute India  |  DevInfra Team</text>

  <!-- ── Column headers ── -->
  <rect x="0" y="86" width="196" height="44" fill="#071828"/>
  <text x="98" y="113" text-anchor="middle" font-size="12" font-weight="700" fill="#B0C4D8">INNOVATION</text>

  <rect x="200" y="86" width="258" height="44" rx="6" fill="#0891B2"/>
  <text x="329" y="104" text-anchor="middle" font-size="15" font-weight="700" fill="#FFFFFF">APRIL</text>
  <text x="329" y="122" text-anchor="middle" font-size="10" fill="#CDEEF8">Planning &amp; Setup</text>

  <rect x="462" y="86" width="258" height="44" rx="6" fill="#0D9488"/>
  <text x="591" y="104" text-anchor="middle" font-size="15" font-weight="700" fill="#FFFFFF">MAY</text>
  <text x="591" y="122" text-anchor="middle" font-size="10" fill="#CCFDF5">Core Development</text>

  <rect x="724" y="86" width="258" height="44" rx="6" fill="#7C3AED"/>
  <text x="853" y="104" text-anchor="middle" font-size="15" font-weight="700" fill="#FFFFFF">JUNE</text>
  <text x="853" y="122" text-anchor="middle" font-size="10" fill="#DDD6FE">Integration &amp; Delivery</text>

  <rect x="986" y="86" width="290" height="44" rx="6" fill="#F97316"/>
  <text x="1131" y="104" text-anchor="middle" font-size="15" font-weight="700" fill="#FFFFFF">JULY</text>
  <text x="1131" y="122" text-anchor="middle" font-size="10" fill="#FED7AA">Final Delivery</text>

  <!-- vertical separators -->
  <line x1="196" y1="84" x2="196" y2="634" stroke="#1E3A4A" stroke-width="2"/>
  <line x1="460" y1="84" x2="460" y2="634" stroke="#1E3A4A" stroke-width="1.5"/>
  <line x1="722" y1="84" x2="722" y2="634" stroke="#1E3A4A" stroke-width="1.5"/>
  <line x1="984" y1="84" x2="984" y2="634" stroke="#1E3A4A" stroke-width="1.5"/>

  <!-- ═══════════════════════════════════════════
       INN-01  y=134..248  — Complete by MAY
  ═══════════════════════════════════════════ -->
  <rect x="0" y="134" width="196" height="114" fill="#0B2236"/>
  <rect x="0" y="134" width="7" height="114" fill="#0891B2"/>
  <text x="104" y="178" text-anchor="middle" font-size="11" font-weight="700" fill="#0891B2">INN-01</text>
  <text x="104" y="196" text-anchor="middle" font-size="10" fill="#FFFFFF">Infra Optimization</text>
  <text x="104" y="212" text-anchor="middle" font-size="10" fill="#FFFFFF">AI Agent</text>
  <text x="104" y="228" text-anchor="middle" font-size="9" fill="#64A0B8">On-Prem Servers</text>
  <text x="104" y="242" text-anchor="middle" font-size="9" fill="#64A0B8">Eng 1 + 2</text>

  <!-- April — active tasks -->
  <rect x="200" y="138" width="256" height="106" fill="#0A1F30" stroke="#1E3A4A" stroke-width="1"/>
  <rect x="208" y="146" width="6" height="15" rx="3" fill="#0891B2"/>
  <text x="220" y="158" font-size="11" fill="#B0C4D8">Instrument on-prem servers with</text>
  <text x="220" y="173" font-size="11" fill="#B0C4D8">node_exporter; collect baseline</text>
  <rect x="208" y="180" width="6" height="15" rx="3" fill="#0891B2"/>
  <text x="220" y="192" font-size="11" fill="#B0C4D8">Map users → current space allocation</text>
  <rect x="208" y="204" width="6" height="15" rx="3" fill="#0891B2"/>
  <text x="220" y="216" font-size="11" fill="#B0C4D8">Define usage thresholds (7/14 day)</text>
  <text x="448" y="234" text-anchor="end" font-size="9" fill="#0891B2" font-weight="600">✓ Wk 4</text>

  <!-- May — active tasks -->
  <rect x="462" y="138" width="256" height="106" fill="#0A2028" stroke="#1E3A4A" stroke-width="1"/>
  <rect x="470" y="146" width="6" height="15" rx="3" fill="#0D9488"/>
  <text x="482" y="158" font-size="11" fill="#B0C4D8">Build AI space reallocation agent</text>
  <rect x="470" y="172" width="6" height="15" rx="3" fill="#0D9488"/>
  <text x="482" y="184" font-size="11" fill="#B0C4D8">Analyse 1–2 wk usage per user</text>
  <rect x="470" y="196" width="6" height="15" rx="3" fill="#0D9488"/>
  <text x="482" y="208" font-size="11" fill="#B0C4D8">Slack approval + auto-realloc live</text>
  <!-- milestone diamond -->
  <polygon points="700,220 712,232 700,244 688,232" fill="#0D9488"/>
  <text x="700" y="256" text-anchor="middle" font-size="9" font-weight="700" fill="#0D9488">DONE</text>

  <!-- June — completed state -->
  <rect x="724" y="138" width="256" height="106" fill="#0D1B2A" stroke="#1E3A4A" stroke-width="1"/>
  <rect x="724" y="138" width="256" height="106" fill="#16A34A" opacity="0.06"/>
  <text x="852" y="178" text-anchor="middle" font-size="22" fill="#16A34A">✅</text>
  <text x="852" y="206" text-anchor="middle" font-size="13" font-weight="700" fill="#16A34A">Completed</text>
  <text x="852" y="226" text-anchor="middle" font-size="10" fill="#64A0B8">Delivered in May</text>

  <!-- July — completed state -->
  <rect x="986" y="138" width="290" height="106" fill="#0D1B2A" stroke="#1E3A4A" stroke-width="1"/>
  <rect x="986" y="138" width="290" height="106" fill="#16A34A" opacity="0.06"/>
  <text x="1131" y="178" text-anchor="middle" font-size="22" fill="#16A34A">✅</text>
  <text x="1131" y="206" text-anchor="middle" font-size="13" font-weight="700" fill="#16A34A">Completed</text>
  <text x="1131" y="226" text-anchor="middle" font-size="10" fill="#64A0B8">Delivered in May</text>

  <line x1="0" y1="248" x2="1280" y2="248" stroke="#1E3A4A" stroke-width="1.5"/>

  <!-- ═══════════════════════════════════════════
       INN-02  y=248..376  — Complete by JUNE
  ═══════════════════════════════════════════ -->
  <rect x="0" y="249" width="196" height="128" fill="#0A2020"/>
  <rect x="0" y="249" width="7" height="128" fill="#0D9488"/>
  <text x="104" y="293" text-anchor="middle" font-size="11" font-weight="700" fill="#0D9488">INN-02</text>
  <text x="104" y="311" text-anchor="middle" font-size="10" fill="#FFFFFF">CI/CD Security</text>
  <text x="104" y="327" text-anchor="middle" font-size="10" fill="#FFFFFF">AI Agent</text>
  <text x="104" y="343" text-anchor="middle" font-size="9" fill="#64A0B8">Jenkins + SonarQube</text>
  <text x="104" y="359" text-anchor="middle" font-size="9" fill="#64A0B8">All 4 Eng</text>

  <!-- April -->
  <rect x="200" y="253" width="256" height="120" fill="#0A1F30" stroke="#1E3A4A" stroke-width="1"/>
  <rect x="208" y="261" width="6" height="15" rx="3" fill="#0D9488"/>
  <text x="220" y="273" font-size="11" fill="#B0C4D8">Integrate SonarQube with Jenkins</text>
  <rect x="208" y="282" width="6" height="15" rx="3" fill="#0D9488"/>
  <text x="220" y="294" font-size="11" fill="#B0C4D8">Configure Quality Gate rules</text>
  <rect x="208" y="303" width="6" height="15" rx="3" fill="#0D9488"/>
  <text x="220" y="315" font-size="11" fill="#B0C4D8">Map issue owners per project</text>
  <text x="448" y="363" text-anchor="end" font-size="9" fill="#0D9488" font-weight="600">✓ Wk 4</text>

  <!-- May -->
  <rect x="462" y="253" width="256" height="120" fill="#0A2028" stroke="#1E3A4A" stroke-width="1"/>
  <rect x="470" y="261" width="6" height="15" rx="3" fill="#0D9488"/>
  <text x="482" y="273" font-size="11" fill="#B0C4D8">Build AI agent (LangGraph+Bedrock)</text>
  <rect x="470" y="282" width="6" height="15" rx="3" fill="#0D9488"/>
  <text x="482" y="294" font-size="11" fill="#B0C4D8">Connect SonarQube API; Slack DMs</text>
  <rect x="470" y="303" width="6" height="15" rx="3" fill="#0D9488"/>
  <text x="482" y="315" font-size="11" fill="#B0C4D8">Auto-fix PR for BLOCKER issues</text>
  <text x="710" y="363" text-anchor="end" font-size="9" fill="#0D9488" font-weight="600">✓ Wk 4</text>

  <!-- June — milestone -->
  <rect x="724" y="253" width="256" height="120" fill="#0A2028" stroke="#1E3A4A" stroke-width="1"/>
  <rect x="732" y="261" width="6" height="15" rx="3" fill="#7C3AED"/>
  <text x="744" y="273" font-size="11" fill="#B0C4D8">Full pipeline gate; block on CRITICAL</text>
  <rect x="732" y="282" width="6" height="15" rx="3" fill="#7C3AED"/>
  <text x="744" y="294" font-size="11" fill="#B0C4D8">SBOM generation pipeline live</text>
  <rect x="732" y="303" width="6" height="15" rx="3" fill="#7C3AED"/>
  <text x="744" y="315" font-size="11" fill="#B0C4D8">Compliance dashboard &amp; sign-off</text>
  <polygon points="952,340 964,352 952,364 940,352" fill="#7C3AED"/>
  <text x="952" y="374" text-anchor="middle" font-size="9" font-weight="700" fill="#7C3AED">DONE</text>

  <!-- July — completed -->
  <rect x="986" y="253" width="290" height="120" fill="#0D1B2A" stroke="#1E3A4A" stroke-width="1"/>
  <rect x="986" y="253" width="290" height="120" fill="#16A34A" opacity="0.06"/>
  <text x="1131" y="295" text-anchor="middle" font-size="22" fill="#16A34A">✅</text>
  <text x="1131" y="323" text-anchor="middle" font-size="13" font-weight="700" fill="#16A34A">Completed</text>
  <text x="1131" y="343" text-anchor="middle" font-size="10" fill="#64A0B8">Delivered in June</text>

  <line x1="0" y1="377" x2="1280" y2="377" stroke="#1E3A4A" stroke-width="1.5"/>

  <!-- ═══════════════════════════════════════════
       INN-03  y=377..505  — Complete by JUNE
  ═══════════════════════════════════════════ -->
  <rect x="0" y="378" width="196" height="128" fill="#110B2A"/>
  <rect x="0" y="378" width="7" height="128" fill="#7C3AED"/>
  <text x="104" y="422" text-anchor="middle" font-size="11" font-weight="700" fill="#A78BFA">INN-03</text>
  <text x="104" y="440" text-anchor="middle" font-size="10" fill="#FFFFFF">Log Analysis &amp;</text>
  <text x="104" y="456" text-anchor="middle" font-size="10" fill="#FFFFFF">Failure Detection</text>
  <text x="104" y="472" text-anchor="middle" font-size="9" fill="#64A0B8">Jenkins + EFK + K8s</text>
  <text x="104" y="488" text-anchor="middle" font-size="9" fill="#64A0B8">All 4 Eng</text>

  <!-- April -->
  <rect x="200" y="382" width="256" height="120" fill="#0A1F30" stroke="#1E3A4A" stroke-width="1"/>
  <rect x="208" y="390" width="6" height="15" rx="3" fill="#7C3AED"/>
  <text x="220" y="402" font-size="11" fill="#B0C4D8">Collect 90-day Jenkins+EFK logs</text>
  <rect x="208" y="411" width="6" height="15" rx="3" fill="#7C3AED"/>
  <text x="220" y="423" font-size="11" fill="#B0C4D8">Label known failure events</text>
  <rect x="208" y="432" width="6" height="15" rx="3" fill="#7C3AED"/>
  <text x="220" y="444" font-size="11" fill="#B0C4D8">Define anomaly detection approach</text>
  <text x="448" y="492" text-anchor="end" font-size="9" fill="#7C3AED" font-weight="600">✓ Wk 4</text>

  <!-- May -->
  <rect x="462" y="382" width="256" height="120" fill="#130D2A" stroke="#1E3A4A" stroke-width="1"/>
  <rect x="470" y="390" width="6" height="15" rx="3" fill="#7C3AED"/>
  <text x="482" y="402" font-size="11" fill="#B0C4D8">Train anomaly model; Fluentd integ.</text>
  <rect x="470" y="411" width="6" height="15" rx="3" fill="#7C3AED"/>
  <text x="482" y="423" font-size="11" fill="#B0C4D8">First Slack alerts live</text>
  <rect x="470" y="432" width="6" height="15" rx="3" fill="#7C3AED"/>
  <text x="482" y="444" font-size="11" fill="#B0C4D8">PagerDuty + Grafana dashboard</text>
  <text x="710" y="492" text-anchor="end" font-size="9" fill="#7C3AED" font-weight="600">✓ Wk 4</text>

  <!-- June — milestone -->
  <rect x="724" y="382" width="256" height="120" fill="#130D2A" stroke="#1E3A4A" stroke-width="1"/>
  <rect x="732" y="390" width="6" height="15" rx="3" fill="#7C3AED"/>
  <text x="744" y="402" font-size="11" fill="#B0C4D8">Auto-remediation for top 5 patterns</text>
  <rect x="732" y="411" width="6" height="15" rx="3" fill="#7C3AED"/>
  <text x="744" y="423" font-size="11" fill="#B0C4D8">Fine-tune false positive rules</text>
  <rect x="732" y="432" width="6" height="15" rx="3" fill="#7C3AED"/>
  <text x="744" y="444" font-size="11" fill="#B0C4D8">MTTD benchmark &amp; sign-off</text>
  <polygon points="952,468 964,480 952,492 940,480" fill="#7C3AED"/>
  <text x="952" y="502" text-anchor="middle" font-size="9" font-weight="700" fill="#7C3AED">DONE</text>

  <!-- July — completed -->
  <rect x="986" y="382" width="290" height="120" fill="#0D1B2A" stroke="#1E3A4A" stroke-width="1"/>
  <rect x="986" y="382" width="290" height="120" fill="#16A34A" opacity="0.06"/>
  <text x="1131" y="424" text-anchor="middle" font-size="22" fill="#16A34A">✅</text>
  <text x="1131" y="452" text-anchor="middle" font-size="13" font-weight="700" fill="#16A34A">Completed</text>
  <text x="1131" y="472" text-anchor="middle" font-size="10" fill="#64A0B8">Delivered in June</text>

  <line x1="0" y1="506" x2="1280" y2="506" stroke="#1E3A4A" stroke-width="1.5"/>

  <!-- ═══════════════════════════════════════════
       INN-04  y=506..634  — Complete by JULY
  ═══════════════════════════════════════════ -->
  <rect x="0" y="507" width="196" height="128" fill="#1A1008"/>
  <rect x="0" y="507" width="7" height="128" fill="#F97316"/>
  <text x="104" y="551" text-anchor="middle" font-size="11" font-weight="700" fill="#FB923C">INN-04</text>
  <text x="104" y="569" text-anchor="middle" font-size="10" fill="#FFFFFF">Cloud Security &amp;</text>
  <text x="104" y="585" text-anchor="middle" font-size="10" fill="#FFFFFF">Compliance Gate</text>
  <text x="104" y="601" text-anchor="middle" font-size="9" fill="#64A0B8">Terraform + OPA</text>
  <text x="104" y="617" text-anchor="middle" font-size="9" fill="#64A0B8">All 4 Eng</text>

  <!-- April -->
  <rect x="200" y="511" width="256" height="120" fill="#0A1F30" stroke="#1E3A4A" stroke-width="1"/>
  <rect x="208" y="519" width="6" height="15" rx="3" fill="#F97316"/>
  <text x="220" y="531" font-size="11" fill="#B0C4D8">Define security policy catalogue</text>
  <rect x="208" y="540" width="6" height="15" rx="3" fill="#F97316"/>
  <text x="220" y="552" font-size="11" fill="#B0C4D8">Map Terraform resource risk levels</text>
  <rect x="208" y="561" width="6" height="15" rx="3" fill="#F97316"/>
  <text x="220" y="573" font-size="11" fill="#B0C4D8">Select tooling: OPA / Checkov</text>
  <text x="448" y="621" text-anchor="end" font-size="9" fill="#F97316" font-weight="600">✓ Wk 4</text>

  <!-- May -->
  <rect x="462" y="511" width="256" height="120" fill="#1A100A" stroke="#1E3A4A" stroke-width="1"/>
  <rect x="470" y="519" width="6" height="15" rx="3" fill="#F97316"/>
  <text x="482" y="531" font-size="11" fill="#B0C4D8">Build AI Terraform validator (LLM)</text>
  <rect x="470" y="540" width="6" height="15" rx="3" fill="#F97316"/>
  <text x="482" y="552" font-size="11" fill="#B0C4D8">GitHub Actions CI integration</text>
  <rect x="470" y="561" width="6" height="15" rx="3" fill="#F97316"/>
  <text x="482" y="573" font-size="11" fill="#B0C4D8">Initial rule set validated</text>
  <text x="710" y="621" text-anchor="end" font-size="9" fill="#F97316" font-weight="600">✓ Wk 4</text>

  <!-- June -->
  <rect x="724" y="511" width="256" height="120" fill="#1A100A" stroke="#1E3A4A" stroke-width="1"/>
  <rect x="732" y="519" width="6" height="15" rx="3" fill="#F97316"/>
  <text x="744" y="531" font-size="11" fill="#B0C4D8">OPA / Conftest engine live</text>
  <rect x="732" y="540" width="6" height="15" rx="3" fill="#F97316"/>
  <text x="744" y="552" font-size="11" fill="#B0C4D8">Block/warn gates across all repos</text>
  <rect x="732" y="561" width="6" height="15" rx="3" fill="#F97316"/>
  <text x="744" y="573" font-size="11" fill="#B0C4D8">Dev exception flow tested</text>
  <text x="972" y="621" text-anchor="end" font-size="9" fill="#F97316" font-weight="600">✓ Wk 4</text>

  <!-- July — milestone -->
  <rect x="986" y="511" width="290" height="120" fill="#1A100A" stroke="#1E3A4A" stroke-width="1"/>
  <rect x="994" y="519" width="6" height="15" rx="3" fill="#F97316"/>
  <text x="1006" y="531" font-size="11" fill="#B0C4D8">Compliance gate all TF repos</text>
  <rect x="994" y="540" width="6" height="15" rx="3" fill="#F97316"/>
  <text x="1006" y="552" font-size="11" fill="#B0C4D8">Automated audit reporting live</text>
  <rect x="994" y="561" width="6" height="15" rx="3" fill="#F97316"/>
  <text x="1006" y="573" font-size="11" fill="#B0C4D8">Sign-off &amp; final showcase</text>
  <polygon points="1248,590 1260,602 1248,614 1236,602" fill="#F97316"/>
  <text x="1248" y="626" text-anchor="middle" font-size="9" font-weight="700" fill="#F97316">DONE</text>

  <line x1="0" y1="634" x2="1280" y2="634" stroke="#1E3A4A" stroke-width="1.5"/>

  <!-- ── Legend strip ── -->
  <rect x="0" y="635" width="1280" height="30" fill="#071218"/>
  <!-- Active task -->
  <rect x="30" y="644" width="6" height="15" rx="3" fill="#00C9B1"/>
  <text x="42" y="656" font-size="10" fill="#B0C4D8">Active task</text>
  <!-- Milestone -->
  <polygon points="160,644 168,652 160,660 152,652" fill="#F97316"/>
  <text x="175" y="656" font-size="10" fill="#B0C4D8">Month-end milestone</text>
  <!-- Completed -->
  <text x="330" y="657" font-size="13" fill="#16A34A">✅</text>
  <text x="348" y="656" font-size="10" fill="#B0C4D8">Completed — no further work needed</text>
  <!-- Tick -->
  <text x="580" y="656" font-size="10" fill="#64748B">✓ Wk 4 = deliverable confirmed end of month</text>

  <!-- ── KPI strip ── -->
  <rect x="0" y="666" width="1280" height="54" fill="#040C12"/>
  <line x1="320" y1="670" x2="320" y2="716" stroke="#1E3A4A" stroke-width="1"/>
  <line x1="640" y1="670" x2="640" y2="716" stroke="#1E3A4A" stroke-width="1"/>
  <line x1="960" y1="670" x2="960" y2="716" stroke="#1E3A4A" stroke-width="1"/>

  <text x="160" y="690" text-anchor="middle" font-size="22" font-weight="700" fill="#0891B2">INN-01</text>
  <text x="160" y="708" text-anchor="middle" font-size="10" fill="#B0C4D8">Done by End of May</text>

  <text x="480" y="690" text-anchor="middle" font-size="22" font-weight="700" fill="#0D9488">INN-02</text>
  <text x="480" y="708" text-anchor="middle" font-size="10" fill="#B0C4D8">Done by End of June</text>

  <text x="800" y="690" text-anchor="middle" font-size="22" font-weight="700" fill="#7C3AED">INN-03</text>
  <text x="800" y="708" text-anchor="middle" font-size="10" fill="#B0C4D8">Done by End of June</text>

  <text x="1120" y="690" text-anchor="middle" font-size="22" font-weight="700" fill="#F97316">INN-04</text>
  <text x="1120" y="708" text-anchor="middle" font-size="10" fill="#B0C4D8">Done by End of July</text>

  <!-- bottom footer -->
  <rect x="0" y="720" width="1280" height="0" fill="#040C12"/>
</svg>
